G04*
G04 #@! TF.GenerationSoftware,Altium Limited,Altium Designer,23.11.1 (41)*
G04*
G04 Layer_Physical_Order=1*
G04 Layer_Color=255*
%FSLAX25Y25*%
%MOIN*%
G70*
G04*
G04 #@! TF.SameCoordinates,DA4C2B11-B2A6-48E5-B279-5A3AD9B65692*
G04*
G04*
G04 #@! TF.FilePolarity,Positive*
G04*
G01*
G75*
%ADD12C,0.00787*%
%ADD13C,0.01000*%
%ADD15C,0.00900*%
%ADD16R,0.02134X0.07359*%
G04:AMPARAMS|DCode=17|XSize=73.59mil|YSize=21.34mil|CornerRadius=10.67mil|HoleSize=0mil|Usage=FLASHONLY|Rotation=90.000|XOffset=0mil|YOffset=0mil|HoleType=Round|Shape=RoundedRectangle|*
%AMROUNDEDRECTD17*
21,1,0.07359,0.00000,0,0,90.0*
21,1,0.05225,0.02134,0,0,90.0*
1,1,0.02134,0.00000,0.02612*
1,1,0.02134,0.00000,-0.02612*
1,1,0.02134,0.00000,-0.02612*
1,1,0.02134,0.00000,0.02612*
%
%ADD17ROUNDEDRECTD17*%
%ADD27C,0.02400*%
%ADD28C,0.04000*%
%ADD29C,0.05512*%
%ADD30C,0.05906*%
%ADD31R,0.05906X0.05906*%
%ADD32C,0.04724*%
%ADD33R,0.04724X0.04724*%
%ADD34R,0.04724X0.04724*%
%ADD35R,0.04134X0.04134*%
%ADD36C,0.04134*%
%ADD37C,0.05000*%
D12*
X9873Y12872D02*
X5000D01*
Y5000D01*
X9873D01*
X5000Y9124D02*
X7999D01*
X16808Y10998D02*
X16434Y11748D01*
X15684Y12497D01*
X14934Y12872D01*
X13435D01*
X12685Y12497D01*
X11935Y11748D01*
X11560Y10998D01*
X11185Y9873D01*
Y7999D01*
X11560Y6874D01*
X11935Y6125D01*
X12685Y5375D01*
X13435Y5000D01*
X14934D01*
X15684Y5375D01*
X16434Y6125D01*
X16808Y6874D01*
X25018Y5000D02*
X22019Y12872D01*
X19020Y5000D01*
X20145Y7624D02*
X23894D01*
X26855Y12872D02*
Y5000D01*
Y12872D02*
X29854Y5000D01*
X32853Y12872D02*
X29854Y5000D01*
X32853Y12872D02*
Y5000D01*
D13*
X69999Y146497D02*
X66000D01*
Y143498D01*
X67999D01*
X66000D01*
Y140499D01*
X71998D02*
Y141499D01*
X72998D01*
Y140499D01*
X71998D01*
X76996Y146497D02*
Y142499D01*
X78996Y140499D01*
X80995Y142499D01*
Y146497D01*
X83994Y144498D02*
X85993D01*
X86993Y143498D01*
Y140499D01*
X83994D01*
X82995Y141499D01*
X83994Y142499D01*
X86993D01*
X88993Y140499D02*
X91992D01*
X92991Y141499D01*
X91992Y142499D01*
X89992D01*
X88993Y143498D01*
X89992Y144498D01*
X92991D01*
X94991Y140499D02*
X97990D01*
X98989Y141499D01*
X97990Y142499D01*
X95990D01*
X94991Y143498D01*
X95990Y144498D01*
X98989D01*
X100989Y140499D02*
X102988D01*
X101988D01*
Y144498D01*
X100989D01*
X105987Y140499D02*
X107986D01*
X106987D01*
Y146497D01*
X105987D01*
X110985Y144498D02*
Y141499D01*
X111985Y140499D01*
X114984D01*
Y139500D01*
X113985Y138500D01*
X112985D01*
X114984Y140499D02*
Y144498D01*
X31000Y151000D02*
Y153666D01*
X32333Y154999D01*
X33666Y153666D01*
Y151000D01*
Y152999D01*
X31000D01*
X34999Y153666D02*
Y151666D01*
X35665Y151000D01*
X37664D01*
Y153666D01*
X39664Y154332D02*
Y153666D01*
X38997D01*
X40330D01*
X39664D01*
Y151666D01*
X40330Y151000D01*
X42330Y154999D02*
Y151000D01*
Y152999D01*
X42996Y153666D01*
X44329D01*
X44995Y152999D01*
Y151000D01*
X46995D02*
X48328D01*
X48994Y151666D01*
Y152999D01*
X48328Y153666D01*
X46995D01*
X46328Y152999D01*
Y151666D01*
X46995Y151000D01*
X50327Y153666D02*
Y151000D01*
Y152333D01*
X50994Y152999D01*
X51660Y153666D01*
X52326D01*
X58324D02*
X58991D01*
Y152999D01*
X58324D01*
Y153666D01*
Y151666D02*
X58991D01*
Y151000D01*
X58324D01*
Y151666D01*
X68321Y154999D02*
X65655D01*
Y151000D01*
X68321D01*
X65655Y152999D02*
X66988D01*
X72320Y154332D02*
X71653Y154999D01*
X70321D01*
X69654Y154332D01*
Y151666D01*
X70321Y151000D01*
X71653D01*
X72320Y151666D01*
X73653Y151000D02*
Y153666D01*
X74986Y154999D01*
X76319Y153666D01*
Y151000D01*
Y152999D01*
X73653D01*
X77652Y151000D02*
Y154999D01*
X78984Y153666D01*
X80317Y154999D01*
Y151000D01*
X85649Y152999D02*
X88315D01*
X96312Y151000D02*
X93647D01*
X96312Y153666D01*
Y154332D01*
X95646Y154999D01*
X94313D01*
X93647Y154332D01*
X97645Y151000D02*
X98978D01*
X98312D01*
Y154999D01*
X97645Y154332D01*
X103643Y151000D02*
X100977D01*
X103643Y153666D01*
Y154332D01*
X102977Y154999D01*
X101644D01*
X100977Y154332D01*
X106975Y151000D02*
Y154999D01*
X104976Y152999D01*
X107642D01*
X111641Y154999D02*
X108975D01*
Y152999D01*
X110308Y153666D01*
X110974D01*
X111641Y152999D01*
Y151666D01*
X110974Y151000D01*
X109641D01*
X108975Y151666D01*
D15*
X676828Y-261943D02*
X676400Y-262371D01*
X676828Y-262800D01*
X677257Y-262371D01*
X676828Y-261943D01*
X685655Y-255944D02*
X685227Y-255087D01*
X684370Y-254230D01*
X683513Y-253802D01*
X681799D01*
X680942Y-254230D01*
X680085Y-255087D01*
X679657Y-255944D01*
X679228Y-257230D01*
Y-259372D01*
X679657Y-260658D01*
X680085Y-261515D01*
X680942Y-262371D01*
X681799Y-262800D01*
X683513D01*
X684370Y-262371D01*
X685227Y-261515D01*
X685655Y-260658D01*
Y-259372D01*
X683513D02*
X685655D01*
X690711Y-253802D02*
Y-262800D01*
X687712Y-253802D02*
X693711D01*
X694782D02*
Y-262800D01*
X699924D01*
D16*
X160000Y135891D02*
D03*
D17*
X165000D02*
D03*
X170000D02*
D03*
X175000D02*
D03*
Y154109D02*
D03*
X170000D02*
D03*
X165000D02*
D03*
X160000D02*
D03*
D27*
X170000Y85000D02*
Y95000D01*
X110000Y97500D02*
X143500Y64000D01*
X255000Y107500D02*
X302500D01*
X330000Y80000D01*
X230000Y82500D02*
X255000Y107500D01*
X330000Y80000D02*
X372500D01*
X280000Y157500D02*
X290000Y167500D01*
X210000Y42500D02*
X230000D01*
X210000Y82500D02*
X230000D01*
X170000Y127500D02*
Y135891D01*
X165000Y122500D02*
X170000Y127500D01*
X95000Y122500D02*
X165000D01*
X70000Y97500D02*
X95000Y122500D01*
X290000Y167500D02*
X372500Y167500D01*
X22500Y70000D02*
X35000Y57500D01*
X55000D01*
X165000Y130000D02*
Y135891D01*
X162500Y127500D02*
X165000Y130000D01*
X20000Y122500D02*
X25000Y127500D01*
X162500D01*
X165000Y154100D02*
Y154109D01*
Y182500D01*
Y154100D02*
X170000D01*
Y154109D01*
D28*
X129157Y37657D02*
X164000Y72500D01*
X230000D01*
X102500Y37657D02*
X129157D01*
X65158D02*
X102500D01*
X147691Y167164D02*
Y169809D01*
X147500Y170000D02*
X147691Y169809D01*
Y167164D02*
X160000Y154855D01*
X20000Y162500D02*
X20289Y162211D01*
X21358D02*
X21726Y161843D01*
X99913D02*
X120281Y182211D01*
X20289Y162211D02*
X21358D01*
X21726Y161843D02*
X99913D01*
X55000Y27500D02*
X65158Y37657D01*
X300300Y17800D02*
X325000Y42500D01*
X345000D01*
X244700Y17800D02*
X300300D01*
X345000Y42500D02*
X372500Y15000D01*
X324638Y62547D02*
X324685Y62500D01*
X295000Y92500D02*
X324638Y62862D01*
X260000Y92500D02*
X295000D01*
X365000Y62500D02*
X372500Y55000D01*
X324685Y62500D02*
X365000D01*
X324638Y62547D02*
Y62862D01*
X227958Y189700D02*
X260157Y157500D01*
X125000Y156452D02*
Y182500D01*
Y156452D02*
X127343Y154109D01*
X160000D01*
X120281Y182211D02*
X124711D01*
X125000Y182500D01*
X125289Y185289D02*
X129700Y189700D01*
X227958D01*
X175000Y135891D02*
X185891D01*
X195000Y145000D01*
X160000Y154109D02*
Y154855D01*
X52500Y30000D02*
X55000Y27500D01*
X22500Y30000D02*
X52500D01*
X230000Y32500D02*
X244700Y17800D01*
X175000Y154109D02*
X180891D01*
X184500Y150500D01*
Y145500D02*
Y150500D01*
Y145500D02*
X185000Y145000D01*
X145891Y135891D02*
X160000D01*
D29*
X170000Y42500D02*
D03*
Y82500D02*
D03*
X210000Y42500D02*
D03*
Y82500D02*
D03*
Y95000D02*
D03*
X170000D02*
D03*
X70000Y97500D02*
D03*
X110000D02*
D03*
X20000Y162500D02*
D03*
X372500Y120000D02*
D03*
Y80000D02*
D03*
X165000Y182500D02*
D03*
X125000D02*
D03*
X22500Y30000D02*
D03*
Y70000D02*
D03*
X20000Y122500D02*
D03*
X372500Y55000D02*
D03*
Y15000D02*
D03*
D30*
X260000Y32500D02*
D03*
Y42500D02*
D03*
Y52500D02*
D03*
Y62500D02*
D03*
Y72500D02*
D03*
Y82500D02*
D03*
Y92500D02*
D03*
X230000Y32500D02*
D03*
Y42500D02*
D03*
Y52500D02*
D03*
Y62500D02*
D03*
Y72500D02*
D03*
Y82500D02*
D03*
D31*
Y92500D02*
D03*
D32*
X102500Y37657D02*
D03*
X325000Y42500D02*
D03*
X260157Y157500D02*
D03*
X372500Y167500D02*
D03*
Y137500D02*
D03*
X55000Y57500D02*
D03*
Y27500D02*
D03*
D33*
X102500Y57342D02*
D03*
X325000Y62185D02*
D03*
D34*
X279842Y157500D02*
D03*
D35*
X149500Y58000D02*
D03*
D36*
Y70000D02*
D03*
X143500Y64000D02*
D03*
D37*
X147500Y170000D02*
D03*
X195000Y145000D02*
D03*
X185000D02*
D03*
X145891Y135891D02*
D03*
M02*
