G04*
G04 #@! TF.GenerationSoftware,Altium Limited,Altium Designer,23.11.1 (41)*
G04*
G04 Layer_Physical_Order=2*
G04 Layer_Color=16711680*
%FSLAX25Y25*%
%MOIN*%
G70*
G04*
G04 #@! TF.SameCoordinates,DA4C2B11-B2A6-48E5-B279-5A3AD9B65692*
G04*
G04*
G04 #@! TF.FilePolarity,Positive*
G04*
G01*
G75*
%ADD12C,0.00787*%
%ADD15C,0.00900*%
%ADD27C,0.02400*%
%ADD28C,0.04000*%
%ADD29C,0.05512*%
%ADD30C,0.05906*%
%ADD31R,0.05906X0.05906*%
%ADD32C,0.04724*%
%ADD33R,0.04724X0.04724*%
%ADD34R,0.04724X0.04724*%
%ADD35R,0.04134X0.04134*%
%ADD36C,0.04134*%
%ADD37C,0.05000*%
D12*
X27627Y12872D02*
X32500D01*
Y5000D01*
X27627D01*
X32500Y9124D02*
X29501D01*
X20692Y10998D02*
X21066Y11748D01*
X21816Y12497D01*
X22566Y12872D01*
X24065D01*
X24815Y12497D01*
X25565Y11748D01*
X25940Y10998D01*
X26315Y9873D01*
Y7999D01*
X25940Y6874D01*
X25565Y6125D01*
X24815Y5375D01*
X24065Y5000D01*
X22566D01*
X21816Y5375D01*
X21066Y6125D01*
X20692Y6874D01*
X12482Y5000D02*
X15481Y12872D01*
X18480Y5000D01*
X17355Y7624D02*
X13606D01*
X10645Y12872D02*
Y5000D01*
Y12872D02*
X7646Y5000D01*
X4647Y12872D02*
X7646Y5000D01*
X4647Y12872D02*
Y5000D01*
D15*
X676828Y-261943D02*
X676400Y-262371D01*
X676828Y-262800D01*
X677257Y-262371D01*
X676828Y-261943D01*
X685655Y-255944D02*
X685227Y-255087D01*
X684370Y-254230D01*
X683513Y-253802D01*
X681799D01*
X680942Y-254230D01*
X680085Y-255087D01*
X679657Y-255944D01*
X679228Y-257230D01*
Y-259372D01*
X679657Y-260658D01*
X680085Y-261515D01*
X680942Y-262371D01*
X681799Y-262800D01*
X683513D01*
X684370Y-262371D01*
X685227Y-261515D01*
X685655Y-260658D01*
Y-259372D01*
X683513D02*
X685655D01*
X687712Y-253802D02*
Y-262800D01*
Y-253802D02*
X691568D01*
X692854Y-254230D01*
X693282Y-254659D01*
X693711Y-255516D01*
Y-256373D01*
X693282Y-257230D01*
X692854Y-257658D01*
X691568Y-258087D01*
X687712D02*
X691568D01*
X692854Y-258515D01*
X693282Y-258944D01*
X693711Y-259801D01*
Y-261086D01*
X693282Y-261943D01*
X692854Y-262371D01*
X691568Y-262800D01*
X687712D01*
X695724Y-253802D02*
Y-262800D01*
X700866D01*
D27*
X149500Y70000D02*
X149832Y69668D01*
Y67668D02*
X169405Y48095D01*
Y45595D02*
X170000Y45000D01*
X149832Y67668D02*
Y69668D01*
X169405Y45595D02*
Y48095D01*
X280000Y52500D02*
Y157500D01*
X210000Y82500D02*
Y95000D01*
X260000Y32500D02*
X280000Y52500D01*
X372500Y120000D02*
Y137500D01*
X20000Y72500D02*
X22500Y70000D01*
X20000Y72500D02*
Y122500D01*
X102500Y57500D02*
X130000D01*
X163644Y91144D01*
Y97633D01*
X167367Y101356D01*
X173856D01*
X227756Y155256D02*
Y157244D01*
X202500Y182500D02*
X227756Y157244D01*
X173856Y101356D02*
X227756Y155256D01*
X165000Y182500D02*
X202500D01*
D28*
X145891Y135891D02*
X155000Y145000D01*
X135000Y125000D02*
X145891Y135891D01*
X136500Y45000D02*
X149500Y58000D01*
X147500Y170000D02*
X170000D01*
X260000Y92500D02*
Y157500D01*
X170000Y170000D02*
X195000Y145000D01*
X230000Y32500D02*
X234900D01*
X234600Y70300D02*
X237400Y67500D01*
X234900Y32500D02*
X237400Y35000D01*
Y67500D01*
X232200Y70300D02*
X234600D01*
X230000Y72500D02*
X232200Y70300D01*
X155000Y145000D02*
X185000D01*
X82500Y60000D02*
X135000Y112500D01*
X83086Y45000D02*
X136500D01*
X82500Y45586D02*
X83086Y45000D01*
X82500Y45586D02*
Y60000D01*
X135000Y112500D02*
Y125000D01*
D29*
X170000Y42500D02*
D03*
Y82500D02*
D03*
X210000Y42500D02*
D03*
Y82500D02*
D03*
Y95000D02*
D03*
X170000D02*
D03*
X70000Y97500D02*
D03*
X110000D02*
D03*
X20000Y162500D02*
D03*
X372500Y120000D02*
D03*
Y80000D02*
D03*
X165000Y182500D02*
D03*
X125000D02*
D03*
X22500Y30000D02*
D03*
Y70000D02*
D03*
X20000Y122500D02*
D03*
X372500Y55000D02*
D03*
Y15000D02*
D03*
D30*
X260000Y32500D02*
D03*
Y42500D02*
D03*
Y52500D02*
D03*
Y62500D02*
D03*
Y72500D02*
D03*
Y82500D02*
D03*
Y92500D02*
D03*
X230000Y32500D02*
D03*
Y42500D02*
D03*
Y52500D02*
D03*
Y62500D02*
D03*
Y72500D02*
D03*
Y82500D02*
D03*
D31*
Y92500D02*
D03*
D32*
X102500Y37657D02*
D03*
X325000Y42500D02*
D03*
X260157Y157500D02*
D03*
X372500Y167500D02*
D03*
Y137500D02*
D03*
X55000Y57500D02*
D03*
Y27500D02*
D03*
D33*
X102500Y57342D02*
D03*
X325000Y62185D02*
D03*
D34*
X279842Y157500D02*
D03*
D35*
X149500Y58000D02*
D03*
D36*
Y70000D02*
D03*
X143500Y64000D02*
D03*
D37*
X147500Y170000D02*
D03*
X195000Y145000D02*
D03*
X185000D02*
D03*
X145891Y135891D02*
D03*
M02*
