G04*
G04 #@! TF.GenerationSoftware,Altium Limited,Altium Designer,23.11.1 (41)*
G04*
G04 Layer_Color=8388736*
%FSLAX25Y25*%
%MOIN*%
G70*
G04*
G04 #@! TF.SameCoordinates,DA4C2B11-B2A6-48E5-B279-5A3AD9B65692*
G04*
G04*
G04 #@! TF.FilePolarity,Negative*
G04*
G01*
G75*
%ADD15C,0.00900*%
%ADD16R,0.02134X0.07359*%
G04:AMPARAMS|DCode=17|XSize=73.59mil|YSize=21.34mil|CornerRadius=10.67mil|HoleSize=0mil|Usage=FLASHONLY|Rotation=90.000|XOffset=0mil|YOffset=0mil|HoleType=Round|Shape=RoundedRectangle|*
%AMROUNDEDRECTD17*
21,1,0.07359,0.00000,0,0,90.0*
21,1,0.05225,0.02134,0,0,90.0*
1,1,0.02134,0.00000,0.02612*
1,1,0.02134,0.00000,-0.02612*
1,1,0.02134,0.00000,-0.02612*
1,1,0.02134,0.00000,0.02612*
%
%ADD17ROUNDEDRECTD17*%
%ADD18C,0.06312*%
%ADD19C,0.06706*%
%ADD20R,0.06706X0.06706*%
%ADD21C,0.05524*%
%ADD22R,0.05524X0.05524*%
%ADD23R,0.05524X0.05524*%
%ADD24R,0.04528X0.04528*%
%ADD25C,0.04528*%
%ADD26C,0.05800*%
D15*
X676828Y-261943D02*
X676400Y-262371D01*
X676828Y-262800D01*
X677257Y-262371D01*
X676828Y-261943D01*
X685655Y-255944D02*
X685227Y-255087D01*
X684370Y-254230D01*
X683513Y-253802D01*
X681799D01*
X680942Y-254230D01*
X680085Y-255087D01*
X679657Y-255944D01*
X679228Y-257230D01*
Y-259372D01*
X679657Y-260658D01*
X680085Y-261515D01*
X680942Y-262371D01*
X681799Y-262800D01*
X683513D01*
X684370Y-262371D01*
X685227Y-261515D01*
X685655Y-260658D01*
Y-259372D01*
X683513D02*
X685655D01*
X690711Y-253802D02*
Y-262800D01*
X687712Y-253802D02*
X693711D01*
X700780Y-255087D02*
X699924Y-254230D01*
X698638Y-253802D01*
X696924D01*
X695639Y-254230D01*
X694782Y-255087D01*
Y-255944D01*
X695210Y-256801D01*
X695639Y-257230D01*
X696496Y-257658D01*
X699067Y-258515D01*
X699924Y-258944D01*
X700352Y-259372D01*
X700780Y-260229D01*
Y-261515D01*
X699924Y-262371D01*
X698638Y-262800D01*
X696924D01*
X695639Y-262371D01*
X694782Y-261515D01*
D16*
X160000Y135891D02*
D03*
D17*
X165000D02*
D03*
X170000D02*
D03*
X175000D02*
D03*
Y154109D02*
D03*
X170000D02*
D03*
X165000D02*
D03*
X160000D02*
D03*
D18*
X170000Y42500D02*
D03*
Y82500D02*
D03*
X210000Y42500D02*
D03*
Y82500D02*
D03*
Y95000D02*
D03*
X170000D02*
D03*
X70000Y97500D02*
D03*
X110000D02*
D03*
X20000Y162500D02*
D03*
X372500Y120000D02*
D03*
Y80000D02*
D03*
X165000Y182500D02*
D03*
X125000D02*
D03*
X22500Y30000D02*
D03*
Y70000D02*
D03*
X20000Y122500D02*
D03*
X372500Y55000D02*
D03*
Y15000D02*
D03*
D19*
X260000Y32500D02*
D03*
Y42500D02*
D03*
Y52500D02*
D03*
Y62500D02*
D03*
Y72500D02*
D03*
Y82500D02*
D03*
Y92500D02*
D03*
X230000Y32500D02*
D03*
Y42500D02*
D03*
Y52500D02*
D03*
Y62500D02*
D03*
Y72500D02*
D03*
Y82500D02*
D03*
D20*
Y92500D02*
D03*
D21*
X102500Y37657D02*
D03*
X325000Y42500D02*
D03*
X260157Y157500D02*
D03*
X372500Y167500D02*
D03*
Y137500D02*
D03*
X55000Y57500D02*
D03*
Y27500D02*
D03*
D22*
X102500Y57342D02*
D03*
X325000Y62185D02*
D03*
D23*
X279842Y157500D02*
D03*
D24*
X149500Y58000D02*
D03*
D25*
Y70000D02*
D03*
X143500Y64000D02*
D03*
D26*
X147500Y170000D02*
D03*
X195000Y145000D02*
D03*
X185000D02*
D03*
X145891Y135891D02*
D03*
M02*
