M48
;Layer_Color=9474304
;FILE_FORMAT=2:5
INCH,LZ
;TYPE=PLATED
T01F00S00C0.03000
T02F00S00C0.03150
%
T01
X00225Y003
X0055Y00275
Y00575
X00225Y007
X002Y01225
X007Y00975
X011
X01025Y0057342
Y0037657
X017Y00425
Y00825
Y0095
X021
Y00825
X023
Y00725
Y00625
Y00525
Y00425
Y00325
X021Y00425
X026
Y00325
Y00525
Y00625
Y00725
Y00825
Y00925
X023
X0325Y0062185
Y00425
X03725Y0055
Y008
Y012
Y0015
Y01375
Y01675
X0279842Y01575
X0260157
X0195Y0145
X0185
X0145891Y0135891
X01475Y017
X0165Y01825
X0125
X002Y01625
T02
X01495Y0058
Y007
X01435Y0064
M30
