G04*
G04 #@! TF.GenerationSoftware,Altium Limited,Altium Designer,23.11.1 (41)*
G04*
G04 Layer_Color=65535*
%FSLAX25Y25*%
%MOIN*%
G70*
G04*
G04 #@! TF.SameCoordinates,DA4C2B11-B2A6-48E5-B279-5A3AD9B65692*
G04*
G04*
G04 #@! TF.FilePolarity,Positive*
G04*
G01*
G75*
%ADD10C,0.02362*%
%ADD11C,0.00984*%
%ADD12C,0.00787*%
%ADD13C,0.01000*%
%ADD14C,0.00591*%
%ADD15C,0.00900*%
D10*
X239685Y97342D02*
G03*
X239685Y97342I-1181J0D01*
G01*
D11*
X230492Y97618D02*
G03*
X230492Y97618I-492J0D01*
G01*
X160492Y130046D02*
G03*
X160492Y130046I-492J0D01*
G01*
D12*
X242500Y101279D02*
G03*
X247500Y101279I2500J0D01*
G01*
X147941Y73370D02*
G03*
X147941Y54630I0J-9370D01*
G01*
X166000Y50500D02*
X174000D01*
X166000D02*
Y74500D01*
X174000D01*
Y50500D02*
Y74500D01*
X170000Y46500D02*
Y50500D01*
Y74500D02*
Y78500D01*
X206000Y50500D02*
X214000D01*
X206000D02*
Y74500D01*
X214000D01*
Y50500D02*
Y74500D01*
X210000Y46500D02*
Y50500D01*
Y74500D02*
Y78500D01*
X202000Y91000D02*
Y99000D01*
X178000Y91000D02*
X202000D01*
X178000D02*
Y99000D01*
X202000D01*
Y95000D02*
X206000D01*
X174000D02*
X178000D01*
X234567Y23720D02*
X255433D01*
X247500Y101280D02*
X255433D01*
X234567D02*
X242500D01*
X255433Y23720D02*
Y101280D01*
X234567Y23720D02*
Y101280D01*
X74000Y97500D02*
X78000D01*
X102000D02*
X106000D01*
X78000Y101500D02*
X102000D01*
X78000Y93500D02*
Y101500D01*
Y93500D02*
X102000D01*
Y101500D01*
X157844Y141539D02*
Y148461D01*
X177155D01*
Y141539D02*
Y148461D01*
X157844Y141539D02*
X177155D01*
X147941Y54630D02*
X152764D01*
Y73370D01*
X147941D02*
X152764D01*
X368500Y112000D02*
X376500D01*
Y88000D02*
Y112000D01*
X368500Y88000D02*
X376500D01*
X368500D02*
Y112000D01*
X372500D02*
Y116000D01*
Y84000D02*
Y88000D01*
X157000Y178500D02*
Y186500D01*
X133000Y178500D02*
X157000D01*
X133000D02*
Y186500D01*
X157000D01*
Y182500D02*
X161000D01*
X129000D02*
X133000D01*
X18500Y38000D02*
X26500D01*
X18500D02*
Y62000D01*
X26500D01*
Y38000D02*
Y62000D01*
X22500Y34000D02*
Y38000D01*
Y62000D02*
Y66000D01*
X16000Y154500D02*
X24000D01*
Y130500D02*
Y154500D01*
X16000Y130500D02*
X24000D01*
X16000D02*
Y154500D01*
X20000D02*
Y158500D01*
Y126500D02*
Y130500D01*
X368500Y47000D02*
X376500D01*
Y23000D02*
Y47000D01*
X368500Y23000D02*
X376500D01*
X368500D02*
Y47000D01*
X372500D02*
Y51000D01*
Y19000D02*
Y23000D01*
X365000Y175000D02*
X380000D01*
Y130000D02*
Y175000D01*
X365000Y130000D02*
X380000D01*
X365000D02*
Y175000D01*
X47500Y65000D02*
X62500D01*
Y20000D02*
Y65000D01*
X47500Y20000D02*
X62500D01*
X47500D02*
Y65000D01*
D13*
X122185Y47500D02*
G03*
X122185Y47500I-19685J0D01*
G01*
X344685Y52342D02*
G03*
X344685Y52342I-19685J0D01*
G01*
X289685Y157500D02*
G03*
X289685Y157500I-19685J0D01*
G01*
X177502Y47001D02*
Y52999D01*
X180501D01*
X181500Y51999D01*
Y50000D01*
X180501Y49000D01*
X177502D01*
X179501D02*
X181500Y47001D01*
X183500Y52999D02*
X187498D01*
Y51999D01*
X183500Y48001D01*
Y47001D01*
X192502D02*
Y52999D01*
X195501D01*
X196500Y51999D01*
Y50000D01*
X195501Y49000D01*
X192502D01*
X194501D02*
X196500Y47001D01*
X198500Y51999D02*
X199499Y52999D01*
X201499D01*
X202498Y51999D01*
Y51000D01*
X201499Y50000D01*
X202498Y49000D01*
Y48001D01*
X201499Y47001D01*
X199499D01*
X198500Y48001D01*
Y49000D01*
X199499Y50000D01*
X198500Y51000D01*
Y51999D01*
X199499Y50000D02*
X201499D01*
X190002Y102001D02*
Y107999D01*
X193001D01*
X194000Y106999D01*
Y105000D01*
X193001Y104000D01*
X190002D01*
X192001D02*
X194000Y102001D01*
X199998Y107999D02*
X196000D01*
Y105000D01*
X197999Y106000D01*
X198999D01*
X199998Y105000D01*
Y103001D01*
X198999Y102001D01*
X196999D01*
X196000Y103001D01*
X227600Y110698D02*
Y105700D01*
X228600Y104700D01*
X230599D01*
X231599Y105700D01*
Y110698D01*
X237597Y104700D02*
X233598D01*
X237597Y108699D01*
Y109698D01*
X236597Y110698D01*
X234598D01*
X233598Y109698D01*
X67800Y104900D02*
Y110898D01*
X70799D01*
X71799Y109898D01*
Y107899D01*
X70799Y106899D01*
X67800D01*
X69799D02*
X71799Y104900D01*
X76797D02*
Y110898D01*
X73798Y107899D01*
X77797D01*
X87299Y81498D02*
X86299Y82498D01*
X84300D01*
X83300Y81498D01*
Y77500D01*
X84300Y76500D01*
X86299D01*
X87299Y77500D01*
X89298Y76500D02*
X91297D01*
X90298D01*
Y82498D01*
X89298Y81498D01*
X309799Y86398D02*
X308799Y87398D01*
X306800D01*
X305800Y86398D01*
Y82400D01*
X306800Y81400D01*
X308799D01*
X309799Y82400D01*
X315797Y87398D02*
X311798D01*
Y84399D01*
X313797Y85399D01*
X314797D01*
X315797Y84399D01*
Y82400D01*
X314797Y81400D01*
X312798D01*
X311798Y82400D01*
X254799Y185698D02*
X253799Y186698D01*
X251800D01*
X250800Y185698D01*
Y181700D01*
X251800Y180700D01*
X253799D01*
X254799Y181700D01*
X259797Y180700D02*
Y186698D01*
X256798Y183699D01*
X260797D01*
X148501Y157999D02*
Y153001D01*
X149501Y152001D01*
X151500D01*
X152500Y153001D01*
Y157999D01*
X154499Y152001D02*
X156499D01*
X155499D01*
Y157999D01*
X154499Y156999D01*
X369100Y126200D02*
Y132198D01*
X372099D01*
X373099Y131198D01*
Y129199D01*
X372099Y128199D01*
X369100D01*
X371099D02*
X373099Y126200D01*
X379097Y132198D02*
X377097Y131198D01*
X375098Y129199D01*
Y127200D01*
X376098Y126200D01*
X378097D01*
X379097Y127200D01*
Y128199D01*
X378097Y129199D01*
X375098D01*
X122800Y189900D02*
Y195898D01*
X125799D01*
X126799Y194898D01*
Y192899D01*
X125799Y191899D01*
X122800D01*
X124799D02*
X126799Y189900D01*
X128798Y194898D02*
X129798Y195898D01*
X131797D01*
X132797Y194898D01*
Y193899D01*
X131797Y192899D01*
X130797D01*
X131797D01*
X132797Y191899D01*
Y190900D01*
X131797Y189900D01*
X129798D01*
X128798Y190900D01*
X19100Y76200D02*
Y82198D01*
X22099D01*
X23099Y81198D01*
Y79199D01*
X22099Y78199D01*
X19100D01*
X21099D02*
X23099Y76200D01*
X29097D02*
X25098D01*
X29097Y80199D01*
Y81198D01*
X28097Y82198D01*
X26098D01*
X25098Y81198D01*
X16600Y168700D02*
Y174698D01*
X19599D01*
X20599Y173698D01*
Y171699D01*
X19599Y170699D01*
X16600D01*
X18599D02*
X20599Y168700D01*
X22598D02*
X24597D01*
X23598D01*
Y174698D01*
X22598Y173698D01*
X143099Y77900D02*
Y81898D01*
X142099Y82898D01*
X140100D01*
X139100Y81898D01*
Y77900D01*
X140100Y76900D01*
X142099D01*
X141099Y78899D02*
X143099Y76900D01*
X142099D02*
X143099Y77900D01*
X145098Y76900D02*
X147097D01*
X146098D01*
Y82898D01*
X145098Y81898D01*
X369100Y67198D02*
Y61200D01*
X373099D01*
X379097Y66198D02*
X378097Y67198D01*
X376098D01*
X375098Y66198D01*
Y65199D01*
X376098Y64199D01*
X378097D01*
X379097Y63199D01*
Y62200D01*
X378097Y61200D01*
X376098D01*
X375098Y62200D01*
X381096Y61200D02*
X383096D01*
X382096D01*
Y67198D01*
X381096Y66198D01*
X369599Y183398D02*
X368599Y184398D01*
X366600D01*
X365600Y183398D01*
Y179400D01*
X366600Y178400D01*
X368599D01*
X369599Y179400D01*
X371598Y183398D02*
X372598Y184398D01*
X374597D01*
X375597Y183398D01*
Y182399D01*
X374597Y181399D01*
X373597D01*
X374597D01*
X375597Y180399D01*
Y179400D01*
X374597Y178400D01*
X372598D01*
X371598Y179400D01*
X52099Y73398D02*
X51099Y74398D01*
X49100D01*
X48100Y73398D01*
Y69400D01*
X49100Y68400D01*
X51099D01*
X52099Y69400D01*
X58097Y68400D02*
X54098D01*
X58097Y72399D01*
Y73398D01*
X57097Y74398D01*
X55098D01*
X54098Y73398D01*
D14*
X102048Y69000D02*
Y72936D01*
X100080Y70968D02*
X104016D01*
X324548Y73843D02*
Y77778D01*
X322580Y75810D02*
X326516D01*
X291500Y157952D02*
X295436D01*
X293468Y159920D02*
Y155984D01*
D15*
X676828Y-261943D02*
X676400Y-262371D01*
X676828Y-262800D01*
X677257Y-262371D01*
X676828Y-261943D01*
X685655Y-255944D02*
X685227Y-255087D01*
X684370Y-254230D01*
X683513Y-253802D01*
X681799D01*
X680942Y-254230D01*
X680085Y-255087D01*
X679657Y-255944D01*
X679228Y-257230D01*
Y-259372D01*
X679657Y-260658D01*
X680085Y-261515D01*
X680942Y-262371D01*
X681799Y-262800D01*
X683513D01*
X684370Y-262371D01*
X685227Y-261515D01*
X685655Y-260658D01*
Y-259372D01*
X683513D02*
X685655D01*
X690711Y-253802D02*
Y-262800D01*
X687712Y-253802D02*
X693711D01*
X697353D02*
X696496Y-254230D01*
X695639Y-255087D01*
X695210Y-255944D01*
X694782Y-257230D01*
Y-259372D01*
X695210Y-260658D01*
X695639Y-261515D01*
X696496Y-262371D01*
X697353Y-262800D01*
X699067D01*
X699924Y-262371D01*
X700780Y-261515D01*
X701209Y-260658D01*
X701637Y-259372D01*
Y-257230D01*
X701209Y-255944D01*
X700780Y-255087D01*
X699924Y-254230D01*
X699067Y-253802D01*
X697353D01*
M02*
