G04*
G04 #@! TF.GenerationSoftware,Altium Limited,Altium Designer,23.11.1 (41)*
G04*
G04 Layer_Color=16711935*
%FSLAX25Y25*%
%MOIN*%
G70*
G04*
G04 #@! TF.SameCoordinates,DA4C2B11-B2A6-48E5-B279-5A3AD9B65692*
G04*
G04*
G04 #@! TF.FilePolarity,Negative*
G04*
G01*
G75*
%ADD15C,0.00900*%
%ADD18C,0.06312*%
%ADD19C,0.06706*%
%ADD20R,0.06706X0.06706*%
%ADD21C,0.05524*%
%ADD22R,0.05524X0.05524*%
%ADD23R,0.05524X0.05524*%
%ADD24R,0.04528X0.04528*%
%ADD25C,0.04528*%
%ADD26C,0.05800*%
D15*
X676828Y-261943D02*
X676400Y-262371D01*
X676828Y-262800D01*
X677257Y-262371D01*
X676828Y-261943D01*
X685655Y-255944D02*
X685227Y-255087D01*
X684370Y-254230D01*
X683513Y-253802D01*
X681799D01*
X680942Y-254230D01*
X680085Y-255087D01*
X679657Y-255944D01*
X679228Y-257230D01*
Y-259372D01*
X679657Y-260658D01*
X680085Y-261515D01*
X680942Y-262371D01*
X681799Y-262800D01*
X683513D01*
X684370Y-262371D01*
X685227Y-261515D01*
X685655Y-260658D01*
Y-259372D01*
X683513D02*
X685655D01*
X687712Y-253802D02*
Y-262800D01*
Y-253802D02*
X691568D01*
X692854Y-254230D01*
X693282Y-254659D01*
X693711Y-255516D01*
Y-256373D01*
X693282Y-257230D01*
X692854Y-257658D01*
X691568Y-258087D01*
X687712D02*
X691568D01*
X692854Y-258515D01*
X693282Y-258944D01*
X693711Y-259801D01*
Y-261086D01*
X693282Y-261943D01*
X692854Y-262371D01*
X691568Y-262800D01*
X687712D01*
X701723Y-255087D02*
X700866Y-254230D01*
X699581Y-253802D01*
X697867D01*
X696581Y-254230D01*
X695724Y-255087D01*
Y-255944D01*
X696153Y-256801D01*
X696581Y-257230D01*
X697438Y-257658D01*
X700009Y-258515D01*
X700866Y-258944D01*
X701295Y-259372D01*
X701723Y-260229D01*
Y-261515D01*
X700866Y-262371D01*
X699581Y-262800D01*
X697867D01*
X696581Y-262371D01*
X695724Y-261515D01*
D18*
X170000Y42500D02*
D03*
Y82500D02*
D03*
X210000Y42500D02*
D03*
Y82500D02*
D03*
Y95000D02*
D03*
X170000D02*
D03*
X70000Y97500D02*
D03*
X110000D02*
D03*
X20000Y162500D02*
D03*
X372500Y120000D02*
D03*
Y80000D02*
D03*
X165000Y182500D02*
D03*
X125000D02*
D03*
X22500Y30000D02*
D03*
Y70000D02*
D03*
X20000Y122500D02*
D03*
X372500Y55000D02*
D03*
Y15000D02*
D03*
D19*
X260000Y32500D02*
D03*
Y42500D02*
D03*
Y52500D02*
D03*
Y62500D02*
D03*
Y72500D02*
D03*
Y82500D02*
D03*
Y92500D02*
D03*
X230000Y32500D02*
D03*
Y42500D02*
D03*
Y52500D02*
D03*
Y62500D02*
D03*
Y72500D02*
D03*
Y82500D02*
D03*
D20*
Y92500D02*
D03*
D21*
X102500Y37657D02*
D03*
X325000Y42500D02*
D03*
X260157Y157500D02*
D03*
X372500Y167500D02*
D03*
Y137500D02*
D03*
X55000Y57500D02*
D03*
Y27500D02*
D03*
D22*
X102500Y57342D02*
D03*
X325000Y62185D02*
D03*
D23*
X279842Y157500D02*
D03*
D24*
X149500Y58000D02*
D03*
D25*
Y70000D02*
D03*
X143500Y64000D02*
D03*
D26*
X147500Y170000D02*
D03*
X195000Y145000D02*
D03*
X185000D02*
D03*
X145891Y135891D02*
D03*
M02*
